<svg xmlns="http://www.w3.org/2000/svg" width="53.206" height="116" viewBox="0 0 53.206 116"><g transform="translate(-25.484 -865)"><text transform="translate(46 877)" fill="#aeaeae" font-size="14" font-family="CircularStd-Book, Circular Std Book" opacity="0.71"><tspan x="0" y="0">with</tspan></text><path d="M.7-1.806A2.1,2.1,0,0,0,2.954.21,2.455,2.455,0,0,0,5.124-.91a4.926,4.926,0,0,0,.07.91H6.482A6.334,6.334,0,0,1,6.4-1.106V-4.48c0-1.316-.784-2.464-2.8-2.464A2.6,2.6,0,0,0,.84-4.76l1.26.294A1.429,1.429,0,0,1,3.626-5.824c1.022,0,1.456.546,1.456,1.2,0,.238-.112.448-.518.5l-1.82.266A2.083,2.083,0,0,0,.7-1.806ZM3.136-.9a1.021,1.021,0,0,1-1.092-.98,1.007,1.007,0,0,1,.98-1.008l2.058-.308v.308A1.766,1.766,0,0,1,3.136-.9Zm6.622-3c0-1.022.532-1.848,1.568-1.848,1.176,0,1.568.756,1.568,1.694V0H14.21V-4.27A2.364,2.364,0,0,0,11.8-6.93,2.306,2.306,0,0,0,9.73-5.768v-.966H8.442V0H9.758Zm7.336.5c0-1.386.784-2.366,1.988-2.366s1.932.952,1.932,2.338S20.272-.98,19.068-.98C17.808-.98,17.094-2,17.094-3.388ZM21.028-.91A5.64,5.64,0,0,0,21.1,0h1.274a10.654,10.654,0,0,1-.07-1.246v-8.89H21v4.354a2.07,2.07,0,0,0-2.058-1.134A3.309,3.309,0,0,0,15.75-3.388c0,2,1.218,3.57,3.192,3.57a2.254,2.254,0,0,0,2.086-1.2Z" transform="translate(49 939)" fill="#aeaeae" opacity="0.71"/><g transform="translate(0 4)"><path d="M12.388,22.043a1.453,1.453,0,0,1-.958-.36c-1-.875-1.966-1.7-2.817-2.423l0,0a52.4,52.4,0,0,1-6.151-5.774A9.222,9.222,0,0,1,0,7.446,7.744,7.744,0,0,1,1.966,2.157,6.663,6.663,0,0,1,6.922,0a6.232,6.232,0,0,1,3.893,1.344,7.965,7.965,0,0,1,1.574,1.643,7.965,7.965,0,0,1,1.574-1.643A6.232,6.232,0,0,1,17.855,0a6.663,6.663,0,0,1,4.956,2.157,7.744,7.744,0,0,1,1.965,5.289,9.221,9.221,0,0,1-2.457,6.036,52.39,52.39,0,0,1-6.151,5.773c-.853.727-1.819,1.55-2.823,2.428a1.454,1.454,0,0,1-.958.36ZM6.922,1.451a5.227,5.227,0,0,0-3.889,1.69A6.3,6.3,0,0,0,1.451,7.446a7.759,7.759,0,0,0,2.124,5.11,51.561,51.561,0,0,0,5.975,5.6l0,0c.855.728,1.823,1.554,2.832,2.436,1.014-.883,1.985-1.71,2.841-2.44A51.573,51.573,0,0,0,21.2,12.556a7.76,7.76,0,0,0,2.123-5.11,6.3,6.3,0,0,0-1.581-4.305,5.227,5.227,0,0,0-3.889-1.69,4.814,4.814,0,0,0-3.005,1.04A7.043,7.043,0,0,0,13.175,4.43a.916.916,0,0,1-1.574,0A7.036,7.036,0,0,0,9.927,2.492a4.813,4.813,0,0,0-3.005-1.04Zm0,0" transform="translate(48.339 889.569)" fill="#949494"/><line y1="3.139" x2="3.139" transform="translate(66.738 903.766)" fill="none" stroke="#fff" stroke-width="3"/></g><g transform="translate(48.31 952.742)"><g transform="translate(0 11.573)"><path d="M86.412,202.654H66.158a2.173,2.173,0,0,0-2.17,2.17v1.447a13.71,13.71,0,0,0,7.44,12.217.724.724,0,0,0,.664-1.286,12.266,12.266,0,0,1-6.658-10.931v-1.447a.724.724,0,0,1,.723-.723H86.412a.724.724,0,0,1,.723.723v1.447a12.261,12.261,0,0,1-6.659,10.93.724.724,0,0,0,.333,1.367.713.713,0,0,0,.331-.081,13.7,13.7,0,0,0,7.442-12.216v-1.447A2.173,2.173,0,0,0,86.412,202.654Z" transform="translate(-63.988 -202.654)" fill="#949494"/></g><g transform="translate(19.741 14.463)"><path d="M364.334,245.8c-1.949-1.253-5.062.107-5.411.265a.724.724,0,0,0,.6,1.318c.7-.317,2.934-1.068,4.028-.363a2.055,2.055,0,0,1,.735,1.875c0,2.9-5.842,4.647-8.1,5.078l-.512.1a.723.723,0,0,0,.139,1.432.67.67,0,0,0,.14-.014l.508-.1c.379-.072,9.269-1.816,9.269-6.5A3.412,3.412,0,0,0,364.334,245.8Z" transform="translate(-355.093 -245.272)" fill="#949494"/></g><g transform="translate(15.915 0)"><path d="M300.681,37.515a4.334,4.334,0,0,0,0-5.241.724.724,0,1,0-1.13.9,2.918,2.918,0,0,1,0,3.436,4.33,4.33,0,0,0,0,5.241.724.724,0,1,0,1.13-.9A2.914,2.914,0,0,1,300.681,37.515Z" transform="translate(-298.666 -32.001)" fill="#949494"/></g><g transform="translate(11.57 0.001)"><path d="M236.61,37.523a4.33,4.33,0,0,0,0-5.241.724.724,0,1,0-1.13.9,2.913,2.913,0,0,1,0,3.436,4.334,4.334,0,0,0,0,5.241.724.724,0,1,0,1.13-.9A2.918,2.918,0,0,1,236.61,37.523Z" transform="translate(-234.597 -32.009)" fill="#949494"/></g><g transform="translate(7.234 0.001)"><path d="M172.681,37.536a4.334,4.334,0,0,0,0-5.241.723.723,0,0,0-1.13.9,2.918,2.918,0,0,1,0,3.436,4.33,4.33,0,0,0,0,5.241.723.723,0,1,0,1.13-.9A2.913,2.913,0,0,1,172.681,37.536Z" transform="translate(-170.666 -32.022)" fill="#949494"/></g></g><path d="M2.538-3.681A1.135,1.135,0,0,1,3.7-2.763l.765-.324A1.883,1.883,0,0,0,2.538-4.464,2.171,2.171,0,0,0,.36-2.169,2.19,2.19,0,0,0,2.547.135,1.989,1.989,0,0,0,4.5-1.215l-.747-.324a1.177,1.177,0,0,1-1.206.891A1.361,1.361,0,0,1,1.224-2.169,1.346,1.346,0,0,1,2.538-3.681Zm7.929,3.06a1.384,1.384,0,0,1-1.35-1.548,1.381,1.381,0,0,1,1.35-1.539,1.381,1.381,0,0,1,1.35,1.539A1.384,1.384,0,0,1,10.467-.621Zm0-3.843a2.183,2.183,0,0,0-2.214,2.3,2.185,2.185,0,0,0,2.214,2.3,2.185,2.185,0,0,0,2.214-2.3A2.183,2.183,0,0,0,10.467-4.464Zm6.966,2.286c0-.891.5-1.521,1.278-1.521s1.242.612,1.242,1.5S19.476-.63,18.7-.63C17.892-.63,17.433-1.287,17.433-2.178ZM19.962-.585A3.626,3.626,0,0,0,20.007,0h.819a6.849,6.849,0,0,1-.045-.8V-6.516h-.837v2.8a1.331,1.331,0,0,0-1.323-.729,2.127,2.127,0,0,0-2.052,2.268,2.089,2.089,0,0,0,2.052,2.3,1.449,1.449,0,0,0,1.341-.774ZM25.938-2.61a1.164,1.164,0,0,1,1.179-1.107A1.091,1.091,0,0,1,28.3-2.61Zm2.493,1.125a1.179,1.179,0,0,1-1.215.873,1.285,1.285,0,0,1-1.305-1.314h3.258a1.9,1.9,0,0,0,.018-.27,2.02,2.02,0,0,0-2.079-2.268,2.16,2.16,0,0,0-2.07,2.286A2.16,2.16,0,0,0,27.216.135,1.962,1.962,0,0,0,29.16-1.233Zm5.508-.693c0-.891.5-1.521,1.278-1.521s1.242.612,1.242,1.5S35.982-.63,35.208-.63C34.4-.63,33.939-1.287,33.939-2.178ZM36.468-.585A3.626,3.626,0,0,0,36.513,0h.819a6.849,6.849,0,0,1-.045-.8V-6.516H36.45v2.8a1.331,1.331,0,0,0-1.323-.729,2.127,2.127,0,0,0-2.052,2.268,2.089,2.089,0,0,0,2.052,2.3,1.449,1.449,0,0,0,1.341-.774Z" transform="translate(32 941.5) rotate(-90)" fill="#aeaeae" opacity="0.71"/><line y1="34" transform="translate(29.5 865)" fill="none" stroke="#707070" stroke-width="0.4" opacity="0.35"/><line y1="34" transform="translate(29.5 947)" fill="none" stroke="#707070" stroke-width="0.4" opacity="0.35"/></g></svg>