<svg xmlns="http://www.w3.org/2000/svg" xmlns:xlink="http://www.w3.org/1999/xlink"><symbol viewBox="0 0 29 16.6" id="arrow-down" xmlns="http://www.w3.org/2000/svg"><path d="M0 2.1L2.1 0l12.4 12.4L26.9 0 29 2.1 14.5 16.6z"/></symbol><symbol viewBox="0 0 16.6 29" id="arrow-left" xmlns="http://www.w3.org/2000/svg"><path d="M14.5 0l2.1 2.1L4.2 14.5l12.4 12.4-2.1 2.1L0 14.5z"/></symbol><symbol viewBox="0 0 101.5 39.5" id="arrow-long-right" xmlns="http://www.w3.org/2000/svg"><path d="M100.2 18.4l-16-17c-.7-.8-2-.9-2.8-.1-.8.7-.8 2.1-.1 2.8l12.8 13.6H2.8c-1.1 0-2 .9-2 2s.9 2 2 2h91.4L81.3 35.4c-.7.8-.7 2.1.1 2.8.8.8 2.1.7 2.8-.1l16-17c.8-.9.7-1.9 0-2.7z"/></symbol><symbol viewBox="0 0 16.6 29" id="arrow-right" xmlns="http://www.w3.org/2000/svg"><path d="M2.1 29L0 26.9l12.4-12.4L0 2.1 2.1 0l14.5 14.5z"/></symbol><symbol id="brand-thething" viewBox="0 0 109.2 81" xmlns="http://www.w3.org/2000/svg"><style>.est0{clip-path:url(#eSVGID_2_)}</style><defs><path id="eSVGID_1_" d="M0 0h109.2v81H0z"/></defs><clipPath id="eSVGID_2_"><use xlink:href="#eSVGID_1_" overflow="visible"/></clipPath><path class="est0" d="M15.7 61.6c0 .9-.1 1.6-.2 2.3-.1.6-.3 1.2-.5 1.6-.2.4-.4.8-.7 1-.3.2-.6.4-.9.4-.2 0-.5 0-.8-.1-.3-.1-.6-.3-.8-.5-.3-.2-.5-.4-.7-.6-.2-.2-.3-.4-.3-.6v-.3l.1-.1h.5c.4-.1.6-.3.8-.8s.2-1.2.2-2.3V40.1c0-.3-.2-.5-.5-.4-1 .3-2.1.7-3 1.1-1.1.5-2.1 1.2-3 2-.9.8-1.6 1.8-2.1 2.9-.5 1.2-.8 2.5-.8 4 0 .7.1 1.3.2 1.8s.3 1 .5 1.4c.2.4.5.8.7 1l.6.6c.1.1.2.1.4.1.1 0 .2 0 .3.1.3.3.3.4.3.6 0 .3-.1.5-.2.8-.1.3-.3.6-.4.8-.2.3-.4.5-.6.7-.2.3-.5.4-.7.4h-.3c-.1 0-.2 0-.3-.1-.3-.2-.6-.4-1-.8a5 5 0 0 1-1.1-1.6c-.4-.6-.7-1.4-.9-2.2-.4-.9-.5-1.8-.5-2.9 0-1.9.4-3.7 1.1-5.3.7-1.6 1.7-3 3-4.2 1.3-1.2 2.8-2.2 4.5-3 1.7-.8 3.7-1.4 5.7-1.8.5-.1 1.1-.2 1.7-.3.7-.1 1.4-.2 2-.3.7-.1 1.3-.2 1.8-.3.5-.1.9-.1 1.1-.2.2 0 .3-.1.4-.1.1-.1.2-.1.3-.2.1-.1.1-.1.2-.1l.1-.1c.1 0 .1 0 .2.1s.1.2.2.3c0 .1.1.2.1.4v.5c0 .2 0 .5-.1.7-.1.3-.2.5-.3.7-.1.2-.3.4-.5.6-.2.2-.4.3-.7.3-.1 0-.4.1-.8.1-.4.1-.8.1-1.3.2s-1 .2-1.6.2c-.4.1-.7.1-1 .2-.3 0-.5.3-.5.6v22.2z"/><path class="est0" d="M21.2 38.3c0-.3 0-.5-.1-.7 0-.2-.1-.3-.1-.4 0-.1-.1-.2-.1-.2 0-.1-.1-.1-.1-.2s0-.1.1-.2.2-.1.3-.2c.1-.1.3-.1.4-.2.1 0 .3-.1.4-.1.7-.1 1.2 0 1.6.2.4.3.6.7.6 1.1v11.3c0 .5.6.5.9.1.3-.5.7-1 1-1.4.4-.4.8-.8 1.2-1 .4-.3.9-.5 1.4-.5.7-.1 1.2-.1 1.6.1.4.2.8.4 1 .8s.4.8.5 1.2c.1.5.1.9.1 1.4V58.1c0 .2.1.4.1.6.1.2.2.4.3.5.1.1.3.2.6.1.4-.1.8-.3 1-.6.3-.3.5-.7.8-1.2.2-.5.4-1 .5-1.5l.3-1.5c.1-.4.2-.7.4-.9.2-.2.3-.3.5-.4.2-.1.4 0 .6 0s.4.2.5.4l.3.6c.1.2.1.4 0 .7-.2.7-.4 1.4-.7 2.2-.3.8-.7 1.5-1.1 2.2-.5.7-1 1.3-1.6 1.8-.6.5-1.4.8-2.2 1-.5.1-1 .1-1.4-.1-.4-.1-.8-.3-1.1-.6-.3-.3-.5-.6-.7-1.1-.1-.4-.2-.9-.2-1.4v-8.1-.9c0-.3 0-.5-.1-.7-.1-.2-.1-.3-.3-.5-.1-.1-.3-.1-.5-.1-.3.1-.6.3-1.1.8-.4.5-.8 1-1.2 1.7s-.8 1.5-1.1 2.3c-.3.8-.5 1.6-.6 2.4V62.3c0 .2 0 .4-.1.6-.1.2-.2.3-.3.5-.1.1-.4.2-.7.3h-.6c-.2 0-.4-.1-.6-.1-.2-.1-.3-.2-.5-.4-.1-.2-.2-.5-.2-.9v-24z"/><path class="est0" d="M45 47.1c0 .7-.1 1.5-.4 2.3-.3.8-.6 1.6-1.1 2.4-.5.8-1.1 1.5-1.9 2.2-.6.6-1.3 1-2.1 1.5-.3.1-.4.5-.2.7.1.1.2.3.3.4.2.3.5.5.8.7.3.2.6.3 1 .3.4.1.9 0 1.4 0 .8-.1 1.4-.4 2-.8.6-.4 1-.9 1.4-1.4.4-.5.7-1.1.9-1.8.2-.6.4-1.3.5-1.9.1-.5.3-.8.6-1 .3-.2.6-.3.9-.3.3 0 .5.1.8.4.2.2.3.5.3.9-.1.4-.1.9-.3 1.4-.1.5-.3 1.1-.6 1.7-.2.6-.6 1.2-.9 1.7-.4.6-.9 1.1-1.4 1.6-.6.5-1.2.9-2 1.3s-1.6.7-2.6.8c-.9.2-1.8.1-2.6-.1-.9-.2-1.6-.6-2.3-1.1-.7-.6-1.2-1.3-1.6-2.2-.4-.9-.6-2-.6-3.2 0-1.3.2-2.5.5-3.6.4-1.1.8-2.2 1.4-3.1.6-.9 1.2-1.6 1.9-2.2.7-.6 1.5-.9 2.2-1.1.6-.1 1.1-.1 1.5 0 .4.1.8.3 1.1.6.3.3.5.7.7 1.2.4.6.4 1.1.4 1.7m-6.4 5.8v.7c.5-.3.9-.7 1.3-1.1.4-.4.7-.9 1-1.4.3-.5.5-1.1.7-1.6.2-.6.2-1.2.2-1.8 0-.4-.1-.8-.2-1-.1-.2-.4-.3-.6-.3-.3.1-.6.2-.9.5-.3.3-.5.6-.7 1-.2.4-.3.8-.5 1.3-.1.5-.2.9-.3 1.4-.1.5-.1.9-.2 1.3.2.4.2.8.2 1M56.1 9.3V81l53.1-9.3V0L56.1 9.3zm46.1 8.9l-14 2.4v47l-10.5 1.8v-47l-13.9 2.4v-9.3l38.4-6.7v9.4z"/></symbol><symbol viewBox="0 0 24 24" id="check" xmlns="http://www.w3.org/2000/svg"><path d="M9 21.035l-9-8.638 2.791-2.87 6.156 5.874 12.21-12.436L24 5.782z"/></symbol><symbol viewBox="0 0 24 24" id="close" xmlns="http://www.w3.org/2000/svg"><title>close</title><path d="M24 21l-9.2-9.1 9.1-9.2L21 0l-9.1 9.2L2.8 0 0 2.9 9.1 12 0 21.1 2.9 24l9.1-9.2 9.2 9.1z"/></symbol><symbol viewBox="0 0 24 24" id="eye" xmlns="http://www.w3.org/2000/svg"><path d="M15 12c0 1.7-1.3 3-3 3s-3-1.3-3-3 1.3-3 3-3 3 1.3 3 3zm9-.4S19.7 20 12 20c-7.2 0-12-8.4-12-8.4S4.4 4 12 4c7.7 0 12 7.6 12 7.6zm-7 .4c0-2.8-2.2-5-5-5s-5 2.2-5 5 2.2 5 5 5 5-2.2 5-5z"/></symbol><symbol viewBox="0 0 53 53" id="grid" xmlns="http://www.w3.org/2000/svg"><path d="M0 0h19v19H0zM34 0h19v19H34zM0 34h19v19H0zM34 34h19v19H34z"/></symbol><symbol id="instagram-full" viewBox="0 0 24 24" xmlns="http://www.w3.org/2000/svg"><style>.jst0{clip-path:url(#jSVGID_2_)}.jst1{clip-path:url(#jSVGID_4_)}</style><defs><path id="jSVGID_1_" d="M0 0h24v23.9H0z"/></defs><clipPath id="jSVGID_2_"><use xlink:href="#jSVGID_1_" overflow="visible"/></clipPath><g class="jst0"><defs><path id="jSVGID_3_" d="M0 0h24v24H0z"/></defs><clipPath id="jSVGID_4_"><use xlink:href="#jSVGID_3_" overflow="visible"/></clipPath><path class="jst1" d="M14.8 6.3H9.2c-1.9.1-2.8 1-2.9 2.9v5.6c.1 1.9 1 2.8 2.9 2.9h5.6c1.9-.1 2.8-1 2.9-2.9V12 9.2c-.1-1.9-1-2.8-2.9-2.9M12 15.6c-2 0-3.6-1.6-3.6-3.6S10 8.4 12 8.4s3.6 1.6 3.6 3.6-1.6 3.6-3.6 3.6zm3.7-6.5c-.5 0-.8-.4-.8-.8 0-.5.4-.8.8-.8.5 0 .8.4.8.8.1.4-.3.8-.8.8zM14.3 12c0 1.3-1 2.3-2.3 2.3s-2.3-1-2.3-2.3 1-2.3 2.3-2.3 2.3 1 2.3 2.3zM12 0C5.4 0 0 5.4 0 12s5.4 12 12 12 12-5.4 12-12S18.6 0 12 0zm7 14.9c-.1 2.5-1.5 4-4.1 4.1H9.1c-2.5-.1-4-1.5-4.1-4.1V12 9.1c.1-2.5 1.5-4 4.1-4.1h5.8c2.5.1 4 1.5 4.1 4.1v5.8z"/></g></symbol><symbol viewBox="0 0 84.1 72.9" id="logo-mobile" xmlns="http://www.w3.org/2000/svg"><path d="M0 0l21 36.4 21.1 36.5 9.8-17.1L19.6 0zM59.6 0h-35l17.5 30.2zM64.5 0l-20 34.5 9.9 17 8.7-15.1L84.1 0z"/></symbol><symbol viewBox="0 0 160 70" id="logo-reverse" xmlns="http://www.w3.org/2000/svg"><title>logo-reverse</title><g data-name="Layer 2"><path d="M39.59 0H0v70h80L59.79 35 39.59 0zM120.42 0l-20.21 35-8.36 14.48-9.47-16.36L101.54 0H96.8L80.01 29.03 63.2 0h-4.73l31.01 53.58L80 70h80V0h-39.58z"/></g></symbol><symbol viewBox="0 0 720 400" id="logo-reverse-big" xmlns="http://www.w3.org/2000/svg"><title>logo</title><g data-name="Layer 2"><path d="M129.06 0H0v400h360L244.53 200 129.06 0zM590.94 0L475.47 200l-47.78 82.75-54.11-93.48L483.08 0h-27.06l-95.98 165.89L264.01 0h-27.07l177.24 306.16L360 400h360V0H590.94z"/></g></symbol><symbol id="loupe" viewBox="0 0 23.8 24" xmlns="http://www.w3.org/2000/svg"><style>.nst0{clip-path:url(#nSVGID_2_)}</style><defs><path id="nSVGID_1_" d="M0 0h23.8v24H0z"/></defs><clipPath id="nSVGID_2_"><use xlink:href="#nSVGID_1_" overflow="visible"/></clipPath><path class="nst0" d="M23.8 21.6l-6.2-6.2c1.2-1.6 1.9-3.6 1.9-5.7 0-5.4-4.4-9.7-9.7-9.7C4.4 0 0 4.4 0 9.7c0 5.4 4.4 9.7 9.7 9.7 2 0 3.9-.6 5.5-1.7l6.2 6.2 2.4-2.3zM2.9 9.7c0-3.8 3.1-6.9 6.9-6.9s6.9 3.1 6.9 6.9-3.1 6.9-6.9 6.9c-3.9 0-6.9-3.1-6.9-6.9"/></symbol><symbol id="marker" viewBox="0 0 24 24" xmlns="http://www.w3.org/2000/svg"><style>.ost0{clip-path:url(#oSVGID_2_)}</style><defs><path id="oSVGID_1_" d="M0 0h24v24H0z"/></defs><clipPath id="oSVGID_2_"><use xlink:href="#oSVGID_1_" overflow="visible"/></clipPath><path class="ost0" d="M12 2c5.5 0 10 4.5 10 10s-4.5 10-10 10S2 17.5 2 12 6.5 2 12 2m0-2C5.4 0 0 5.4 0 12s5.4 12 12 12 12-5.4 12-12S18.6 0 12 0"/><path class="ost0" d="M12 6.3c-2 0-3.8 1.6-3.8 3.6s1.6 4.3 3.8 7.7c2.1-3.4 3.8-5.8 3.8-7.7 0-2-1.8-3.6-3.8-3.6m0 5.1c-.7 0-1.3-.6-1.3-1.3 0-.7.6-1.3 1.3-1.3.7 0 1.3.6 1.3 1.3 0 .7-.6 1.3-1.3 1.3"/></symbol><symbol viewBox="0 0 24 24" id="phone" xmlns="http://www.w3.org/2000/svg"><path d="M12 2c5.514 0 10 4.486 10 10s-4.486 10-10 10S2 17.514 2 12 6.486 2 12 2zm0-2C5.373 0 0 5.373 0 12s5.373 12 12 12 12-5.373 12-12S18.627 0 12 0zm4.5 17.311l-1.76-3.397-1.032.505c-1.12.543-3.4-3.91-2.305-4.497l1.042-.513L10.698 6l-1.053.52c-3.601 1.877 2.117 12.991 5.8 11.308l1.055-.517z"/></symbol><symbol id="play-full" viewBox="0 0 70 70" xmlns="http://www.w3.org/2000/svg"><style>.qst0{fill:#231f20}</style><path class="qst0" d="M35.1 5.3c-16.6 0-30 13.4-30 30s13.4 30 30 30 30-13.4 30-30-13.4-30-30-30zm-6.8 40.1V26.9l17.1 9.3-17.1 9.2z"/></symbol><symbol viewBox="0 0 28.6 28.6" id="plus" xmlns="http://www.w3.org/2000/svg"><path d="M28.6 11.6l-11.7.1L16.8 0h-5.2l.1 11.7-11.7.1V17l11.7-.1.1 11.7H17l-.1-11.7 11.7-.1v-5.2z"/></symbol><symbol viewBox="0 0 24 24" id="sessions" xmlns="http://www.w3.org/2000/svg"><path d="M22 3.2c0-.7-.5-1.2-1.2-1.2H3.2C2.5 2 2 2.5 2 3.2V15h20V3.2M4 4h16v9H4V4zm18 12H2c-.2.4-2 4.6-2 5 0 .5.4 1 1 1h22c.6 0 1-.5 1-1 0-.4-1.8-4.6-2-5zM9.8 21l.5-1h3.5l.5 1H9.8z"/></symbol><symbol viewBox="0 0 18 19.9" id="share" xmlns="http://www.w3.org/2000/svg"><path d="M15 14.1c-.8 0-1.4.3-2 .8l-7.1-4.2c.1-.2.1-.5.1-.7s0-.5-.1-.7L13 5.2c.5.5 1.2.8 2 .8 1.7 0 3-1.3 3-3s-1.3-3-3-3-3 1.3-3 3c0 .2 0 .5.1.7L5 7.8C4.5 7.3 3.8 7 3 7c-1.7 0-3 1.3-3 3s1.3 3 3 3c.8 0 1.5-.3 2-.8l7.1 4.2c-.1.2-.1.4-.1.6 0 1.6 1.3 2.9 2.9 2.9s2.9-1.3 2.9-2.9-1.2-2.9-2.8-2.9z"/></symbol><symbol viewBox="0 0 2 1.4" id="usa" xmlns="http://www.w3.org/2000/svg"><path d="M.8 0H2v1.3H0V0h.8m0 .2H2V.1H.8v.1zm0 .2H2V.3H.8v.1zm0 .2H2V.4H.8v.2zm-.7.5H2V1H.1v.1zm1.9.1H.1v.1H2v-.1zM.1.9H2V.8H.1v.1zm0-.1H2V.6H.1v.2z"/></symbol><symbol id="users" viewBox="0 0 24 24" xmlns="http://www.w3.org/2000/svg"><style>.vst0{clip-path:url(#vSVGID_2_)}</style><defs><path id="vSVGID_1_" d="M0 0h24v23.9H0z"/></defs><clipPath id="vSVGID_2_"><use xlink:href="#vSVGID_1_" overflow="visible"/></clipPath><path class="vst0" d="M12 0C5.4 0 0 5.4 0 12s5.4 12 12 12 12-5.4 12-12S18.6 0 12 0m7.8 18.3c-.3-.6-.8-1-1.9-1.2-2.3-.5-4.4-1-3.4-2.9 3.1-6 .8-9.2-2.5-9.2-3.4 0-5.6 3.3-2.5 9.1 1.1 2-1.1 2.4-3.4 2.9-1.1.3-1.6.7-1.9 1.2C2.8 16.6 2 14.4 2 12 2 6.5 6.5 2 12 2s10 4.5 10 10c0 2.4-.8 4.6-2.2 6.3z"/></symbol><symbol viewBox="0 0 251.09 42.82" id="wordmark" xmlns="http://www.w3.org/2000/svg"><title>wordmark</title><path d="M0 0h10.76l10.59 28.06h.12L32.23 0h10.1L24.67 42.82h-7.56zM58.57 0h7.8L85 42.82H74.36l-3.69-9.07H54l-3.57 9.07H40.07zm3.63 12.46L57 25.76h10.46zM92.66 0h9.43v34.11h17.48v8.71H92.66zM127.77 0h12.82l18.2 29.75h.12V0h9.43v42.82H156l-18.68-30.48h-.12v30.48h-9.43zM180.42 0h29.08v8.71h-19.65v8h18.57v8.69h-18.57v8.71h20.74v8.71h-30.17zM229.44 8.35h-12.22V0h33.87v8.35h-12.22v34.47h-9.43z"/></symbol><symbol viewBox="0 0 65 45" id="youtube" xmlns="http://www.w3.org/2000/svg"><title>Artboard 12</title><path d="M54 0H11C4.9 0 0 4.9 0 11v23c0 6.1 4.9 11 11 11h43c6.1 0 11-4.9 11-11V11c0-6.1-4.9-11-11-11zm-8.3 23.8l-19.5 10c-.7.4-1.6.1-2-.6-.1-.2-.2-.4-.2-.7v-20c0-.8.7-1.5 1.5-1.5.2 0 .5.1.7.2l19.5 10c.7.4 1 1.3.7 2-.2.3-.4.5-.7.6z"/></symbol><symbol viewBox="0 0 24 24" id="youtube-full" xmlns="http://www.w3.org/2000/svg"><path d="M10.9 13.9h.7v3.8h-.7v-.4c-.1.2-.3.3-.4.4-.4.2-.9.2-.9-.6v-3.2h.7v2.9c0 .2 0 .3.2.3.1 0 .3-.2.4-.3v-2.9zm.7-4.1c.2 0 .3-.2.3-.4V7.5c0-.2-.1-.4-.3-.4-.2 0-.3.2-.3.4v1.9c-.1.2.1.4.3.4zm-2 2.8H7.2v.7H8v4.4h.8v-4.4h.8v-.7zm4.7 2.2v2.1c0 .5-.2.8-.6.8-.3 0-.5-.1-.7-.3v.3h-.7v-5.1h.7v1.7c.2-.2.4-.4.6-.4.6 0 .7.4.7.9zm-.7.1c0-.1 0-.2-.1-.3-.1-.1-.2-.1-.4-.1l-.1.1V17l.2.1c.1.1.3.1.4 0 0-.1.1-.1.1-.3l-.1-1.9zM24 12c0 6.6-5.4 12-12 12S0 18.6 0 12 5.4 0 12 0s12 5.4 12 12zM13.3 9.7c0 .4.1.7.5.7.2 0 .5-.1.9-.5v.4h.7v-4h-.7v3c-.1.1-.3.3-.4.3-.3.1-.3 0-.3-.1V6.4h-.7v3.3zm-2.8-2.2v2c0 .7.4 1.1 1.1 1.1.6 0 1.1-.4 1.1-1.1v-2c0-.6-.5-1.1-1.1-1.1-.7 0-1.1.4-1.1 1.1zM7.7 5l1 3.2v2.2h.8V8.2l1-3.2h-.8l-.6 2.2L8.6 5h-.9zm10.1 10.2c0-2.6-.2-3.6-1.8-3.7-1.5-.1-6.5-.1-8 0-1.6.1-1.8 1.1-1.8 3.7s.2 3.6 1.8 3.7c1.5.1 6.5.1 8 0 1.6-.1 1.8-1.1 1.8-3.7zm-.9-.2v1h-1.4v.7c0 .3 0 .5.3.5s.3-.2.3-.5v-.3h.7v.3c0 .7-.3 1.2-1.1 1.2-.7 0-1-.5-1-1.2V15c0-.7.4-1.1 1.1-1.1.8-.1 1.1.4 1.1 1.1zm-.7-.1c0-.3-.1-.4-.3-.4-.3 0-.3.2-.3.4v.4h.6v-.4z"/></symbol></svg>